<?xml version="1.0" encoding="utf-8"?>
<!-- Generator: Adobe Illustrator 16.0.0, SVG Export Plug-In . SVG Version: 6.00 Build 0)  -->
<!DOCTYPE svg PUBLIC "-//W3C//DTD SVG 1.0//EN" "http://www.w3.org/TR/2001/REC-SVG-20010904/DTD/svg10.dtd">
<svg version="1.0" xmlns="http://www.w3.org/2000/svg" xmlns:xlink="http://www.w3.org/1999/xlink" x="0px" y="0px" width="28px"
	 height="28px" viewBox="0 0 28 28" enable-background="new 0 0 28 28" xml:space="preserve">
<g id="Background">
	<rect x="0.5" y="0.5" fill="#EEEEEE" stroke="#DDDDDD" stroke-miterlimit="10" width="27" height="27"/>
</g>
<g id="Main_Shape" display="none">
	<rect x="7" y="7" display="inline" fill="#9C9C9C" width="6" height="2"/>
	<rect x="7" y="11" display="inline" fill="#9C9C9C" width="14" height="1"/>
	<rect x="7" y="20" display="inline" fill="#9C9C9C" width="14" height="1"/>
	<rect x="7" y="15" display="inline" fill="#9C9C9C" width="6" height="2"/>
</g>
<g id="Layer_5">
	<g>
		<path fill="#9C9C9C" d="M12,21c0,1.1,0.9,2,2,2l0,0c1.1,0,2-0.9,2-2l0,0c0-1.1-0.9-2-2-2l0,0C12.9,19,12,19.9,12,21L12,21z"/>
	</g>
	<g>
		<path fill="#9C9C9C" d="M12,7c0-1.1,0.9-2,2-2l0,0c1.1,0,2,0.9,2,2v8c0,1.1-0.9,2-2,2l0,0c-1.1,0-2-0.9-2-2V7z"/>
	</g>
</g>
</svg>
