<?xml version="1.0" encoding="utf-8"?>
<!-- Generator: Adobe Illustrator 16.0.0, SVG Export Plug-In . SVG Version: 6.00 Build 0)  -->
<!DOCTYPE svg PUBLIC "-//W3C//DTD SVG 1.0//EN" "http://www.w3.org/TR/2001/REC-SVG-20010904/DTD/svg10.dtd">
<svg version="1.0" xmlns="http://www.w3.org/2000/svg" xmlns:xlink="http://www.w3.org/1999/xlink" x="0px" y="0px" width="28px"
	 height="28px" viewBox="0 0 28 28" enable-background="new 0 0 28 28" xml:space="preserve">
<g id="Background">
	<rect x="0.5" y="0.5" fill="#EEEEEE" stroke="#DDDDDD" stroke-miterlimit="10" width="27" height="27"/>
</g>
<g id="Layer_4">
	<path fill="#6C6C6C" d="M10,14V8c0,0,0-1,1-1s6,0,6,0s1,0,1,1s0,6,0,6h-2V9h-4v5"/>
	<path fill="#9C9C9C" d="M8,15c0,0,0-1,1-1s10,0,10,0s1,0,1,1s0,5,0,5s0,1-1,1S9,21,9,21s-1,0-1-1S8,15,8,15z"/>
</g>
</svg>
