<?xml version="1.0" encoding="utf-8"?>
<!-- Generator: Adobe Illustrator 16.0.0, SVG Export Plug-In . SVG Version: 6.00 Build 0)  -->
<!DOCTYPE svg PUBLIC "-//W3C//DTD SVG 1.0//EN" "http://www.w3.org/TR/2001/REC-SVG-20010904/DTD/svg10.dtd">
<svg version="1.0" id="Layer_1" xmlns="http://www.w3.org/2000/svg" xmlns:xlink="http://www.w3.org/1999/xlink" x="0px" y="0px"
	 width="79px" height="17px" viewBox="0 0 79 17" enable-background="new 0 0 79 17" xml:space="preserve">
<g>
	<path fill="#3C3C3C" d="M10.528,0.368h2.328V17h-2.328V9.32H2.392V17H0.064V0.368h2.328v6.936h8.136V0.368z"/>
	<path fill="#3C3C3C" d="M28.095,17c-0.272-0.721-0.527-1.428-0.768-2.124s-0.488-1.403-0.744-2.124h-7.536L17.536,17h-2.424
		c0.64-1.76,1.24-3.388,1.8-4.884c0.56-1.496,1.107-2.916,1.644-4.26c0.536-1.344,1.068-2.628,1.596-3.852s1.08-2.436,1.656-3.636
		h2.136c0.576,1.2,1.128,2.412,1.656,3.636c0.528,1.224,1.06,2.508,1.596,3.852c0.535,1.344,1.083,2.764,1.644,4.26
		c0.56,1.496,1.16,3.124,1.8,4.884H28.095z M25.912,10.832c-0.512-1.393-1.02-2.74-1.524-4.044
		c-0.504-1.304-1.028-2.556-1.572-3.756c-0.56,1.2-1.092,2.452-1.596,3.756c-0.504,1.304-1.004,2.651-1.5,4.044H25.912z"/>
	<path fill="#3C3C3C" d="M41.561,5.72c-0.672,2.144-1.354,4.127-2.041,5.952c-0.688,1.824-1.376,3.6-2.064,5.328h-2.328
		c-0.848-2.448-1.596-5.031-2.243-7.752c-0.648-2.72-1.253-5.68-1.813-8.88h2.448c0.224,1.248,0.456,2.496,0.696,3.744
		c0.239,1.248,0.487,2.46,0.743,3.636c0.256,1.176,0.513,2.301,0.769,3.372s0.52,2.063,0.792,2.976c0.64-1.68,1.32-3.523,2.04-5.532
		c0.72-2.008,1.392-4.083,2.016-6.228h2.016c0.625,2.145,1.305,4.22,2.041,6.228c0.734,2.008,1.424,3.852,2.063,5.532
		c0.256-0.896,0.512-1.879,0.77-2.951c0.254-1.072,0.506-2.196,0.756-3.373c0.248-1.176,0.49-2.392,0.73-3.648
		c0.24-1.256,0.473-2.508,0.697-3.756h2.375c-0.576,3.2-1.188,6.16-1.836,8.88c-0.648,2.721-1.389,5.304-2.219,7.752h-2.328
		c-0.705-1.729-1.393-3.504-2.064-5.328S42.232,7.864,41.561,5.72z"/>
	<path fill="#3C3C3C" d="M54.76,0.368h2.328V17H54.76V0.368z"/>
	<path fill="#3C3C3C" d="M73.527,0.368c-0.496,0.544-1.057,1.148-1.68,1.812c-0.625,0.664-1.277,1.344-1.957,2.04
		c-0.68,0.696-1.355,1.38-2.027,2.052s-1.305,1.296-1.896,1.872c0.688,0.48,1.416,1.073,2.184,1.776
		c0.768,0.704,1.52,1.456,2.256,2.256c0.736,0.801,1.428,1.617,2.076,2.448c0.648,0.832,1.188,1.624,1.621,2.376h-2.736
		c-0.48-0.752-1.033-1.508-1.656-2.268c-0.625-0.76-1.283-1.488-1.98-2.185c-0.695-0.696-1.4-1.34-2.111-1.932
		c-0.713-0.592-1.404-1.097-2.076-1.513V17h-2.328V0.368h2.328v7.344c0.561-0.528,1.176-1.124,1.848-1.788
		c0.672-0.664,1.336-1.332,1.992-2.004s1.275-1.316,1.859-1.932c0.584-0.616,1.076-1.156,1.477-1.62H73.527z"/>
	<path fill="#3C3C3C" d="M76.313,0.368h2.326V17h-2.326V0.368z"/>
</g>
</svg>