<?xml version="1.0" encoding="utf-8"?>
<!-- Generator: Adobe Illustrator 16.0.0, SVG Export Plug-In . SVG Version: 6.00 Build 0)  -->
<!DOCTYPE svg PUBLIC "-//W3C//DTD SVG 1.0//EN" "http://www.w3.org/TR/2001/REC-SVG-20010904/DTD/svg10.dtd">
<svg version="1.0" xmlns="http://www.w3.org/2000/svg" xmlns:xlink="http://www.w3.org/1999/xlink" x="0px" y="0px" width="28px"
	 height="28px" viewBox="0 0 28 28" enable-background="new 0 0 28 28" xml:space="preserve">
<g id="Background">
	<rect x="0.5" y="0.5" fill="#EEEEEE" stroke="#DDDDDD" stroke-miterlimit="10" width="27" height="27"/>
</g>
<g id="Main_Shape">
	<rect x="7" y="7" fill="#9C9C9C" width="6" height="2"/>
	<rect x="7" y="11" fill="#9C9C9C" width="14" height="1"/>
	<rect x="7" y="20" fill="#9C9C9C" width="14" height="1"/>
	<rect x="7" y="15" fill="#9C9C9C" width="6" height="2"/>
</g>
<g id="Layer_4">
	<path fill="#DA3900" d="M26,26h-6c0,0-3-1-3-4s3-5,3-5s-2,5,0,5s3-2,3-5s-1-5-1-5s4,3,4,6S26,26,26,26z"/>
	<polygon fill="#D45748" points="26,2 20,2 26,8 	"/>
</g>
</svg>
