<?xml version="1.0" encoding="utf-8"?>
<!-- Generator: Adobe Illustrator 16.0.0, SVG Export Plug-In . SVG Version: 6.00 Build 0)  -->
<!DOCTYPE svg PUBLIC "-//W3C//DTD SVG 1.0//EN" "http://www.w3.org/TR/2001/REC-SVG-20010904/DTD/svg10.dtd">
<svg version="1.0" xmlns="http://www.w3.org/2000/svg" xmlns:xlink="http://www.w3.org/1999/xlink" x="0px" y="0px" width="28px"
	 height="28px" viewBox="0 0 28 28" enable-background="new 0 0 28 28" xml:space="preserve">
<g id="Background">
	<rect x="0.5" y="0.5" fill="#EEEEEE" stroke="#D45748" stroke-miterlimit="10" width="27" height="27"/>
</g>
<g id="Main_Shape">
	<rect x="7" y="7" fill="#9C9C9C" width="6" height="2"/>
	<rect x="7" y="11" fill="#9C9C9C" width="14" height="1"/>
	<rect x="7" y="20" fill="#9C9C9C" width="14" height="1"/>
	<rect x="7" y="15" fill="#9C9C9C" width="6" height="2"/>
</g>
<g id="Layer_5">
	<polygon fill="#EEEEEE" points="9,21 9,13 19,13 19,21 15,21 15,20 13,20 13,21 	"/>
</g>
<g id="Layer_4">
	<path fill="#666666" d="M7,27v-4c0,0,0-1,1-1s12,0,12,0s1,0,1,1s0,4,0,4H7z"/>
	<path fill="#333333" d="M10,22v-7c0,0,0-1,1-1s6,0,6,0s1,0,1,1s0,7,0,7h-2v-6h-4v6"/>
</g>
</svg>
